<svg id="Слой_1" data-name="Слой 1" xmlns="http://www.w3.org/2000/svg" viewBox="0 0 579.29 298.64"><defs><style>.cls-1{fill:#79a04d;}.cls-2{fill:#819e57;}.cls-3{fill:#0a6238;}</style></defs><title>logo-elpis-UA</title><path class="cls-1" d="M0,0C7.18,2.4,14,5.83,21.35,7.68,31.67,10.45,42.52,9.6,53,8.36,59,7.66,65.14,7,71.12,8.2a88.09,88.09,0,0,1,40.66,19.25c12.3,11.2,21.07,26,26.33,41.67,5.84,17.71,7.43,36.55,6.81,55.11,5.88,5.6,11.19,11.75,16.82,17.59-.23,3.05-.44,6.1-.67,9.15-6-8.21-9.44-18.78-18.28-24.56-9.21-4.75-19.89-4.5-29.87-6.31C90.78,116.55,68,110.36,50.45,95.81,37,84.15,28.76,67.72,22.88,51.21c-3.84-10.06-4.67-21-9.09-30.87C10.55,12.74,5.54,6.07,0,0M22.8,17.22a26.12,26.12,0,0,0,9.9,9.28c13.73,8,26.67,17.18,40,25.8-7,1.44-17-.41-20.37,7.67,8.38-1.79,17.56-6,25.94-2,10.13,6,18,14.85,26.67,22.68C92.8,76.95,78.8,76.29,67.61,83.12c6.08,2.37,12.26-.32,18.37-.9,6.9-.83,13.78.82,20.44,2.43a8.53,8.53,0,0,1,5.16,2.95c8.51,9.59,15.55,20.51,25.09,29.17a30.44,30.44,0,0,0-5.74-11.48c-7.25-9-14.45-18.19-23-26.09-1.49-1.53-3.42-3-3.75-5.21-1.85-8.4-.44-17,.49-25.41-2.12,1.82-4.58,3.7-5.05,6.65-1,5.37.16,10.83.37,16.22-9.16-11.37-24.65-16.7-30.76-30.64l-2.68,2.94C52.14,34.7,38.89,23.36,22.8,17.22M67.09,27q0,2.22,0,4.44c1.56-.15,3.11-.3,4.67-.47a30.86,30.86,0,0,0-.45-4.08A36.58,36.58,0,0,0,67.09,27Z"/><path class="cls-2" d="M229.88,275.17l2.26-.86c.8,1,1.62,2,2.44,3a26.09,26.09,0,0,1,4.19-3.2c1.22,2.92-1.82,5.58-4.62,5C231.84,279.1,230.94,276.79,229.88,275.17Z"/><path class="cls-1" d="M15.92,279.6c3.81,0,7.62,0,11.43,0,0,.77.13,2.31.18,3.08-2.8,0-5.6,0-8.39.08,0,5.16,0,10.31,0,15.47l-3.24,0C15.93,292,15.94,285.8,15.92,279.6Z"/><path class="cls-1" d="M29.94,279.63c3.38,0,6.89-.49,10.19.46,4.64,1.76,4.8,9.41.28,11.4-2.2.89-4.65.58-7,.78,0,2,0,4,0,6l-3.5,0q0-9.29,0-18.55m3.53,2.76q0,3.53,0,7.05c2.67-.19,7-.35,6.71-4.11C39.44,282.26,35.87,282.77,33.47,282.39Z"/><path class="cls-1" d="M44.73,279.69l3.78-.13q2.13,5.21,4.27,10.42c1.43-3.49,2.82-7,4.24-10.48l3.66.29c-2.44,5.32-4.28,10.93-7.15,16-1.16,2.44-4.07,2.37-6.34,2.76,0-.74-.11-2.21-.14-2.95l4-1.33C48.92,289.44,46.78,284.58,44.73,279.69Z"/><path class="cls-1" d="M62.68,279.59c5,0,10,0,15.06,0q0,9.29,0,18.58H74.39q0-7.75,0-15.51H66q0,7.76,0,15.5H62.68Q62.67,288.9,62.68,279.59Z"/><path class="cls-1" d="M86.44,279.6l3.59,0c2.25,6.18,4.54,12.34,6.65,18.57l-3.65.08-1.83-5-6.07.09-1.65,4.88-3.71-.09c2.18-6.2,4.44-12.36,6.67-18.54M86,290.43h4.38q-1.06-3.17-2.11-6.32C87.51,286.22,86.76,288.33,86,290.43Z"/><path class="cls-1" d="M105.69,279.57l3.27.06c0,2.51,0,5,0,7.53l7-7.67,4.21.31c-2.67,2.94-5.36,5.85-8.06,8.76,3,3.12,5.91,6.29,8.75,9.55l-4.63.13q-3.6-4-7.28-7.88c0,2.61,0,5.22,0,7.84h-3.27C105.67,292,105.66,285.78,105.69,279.57Z"/><path class="cls-1" d="M127.31,279.5c4.11-1.17,9.11.78,10.61,4.95,1.06,3.5,1.09,7.66-1,10.81-2.31,3.3-7,4-10.59,2.76-7.6-3-7.11-16.43.95-18.52m1.14,3.12c-5.35,1.95-5.1,11.56.64,12.76,3.89.68,6.53-3.71,6-7.16C135.09,285,131.84,281.33,128.45,282.62Z"/><path class="cls-1" d="M141.4,279.64l3.94-.07c1.9,4.57,3.78,9.14,5.59,13.75q2.7-6.93,5.6-13.79l3.92.21q0,9.22,0,18.45h-3.27c0-4,0-7.95,0-11.93-1.63,3.93-3.23,7.87-4.83,11.8l-2.7.12c-1.65-3.93-3.26-7.88-4.89-11.82,0,3.94,0,7.88,0,11.83l-3.32,0C141.35,292,141.36,285.82,141.4,279.64Z"/><path class="cls-1" d="M164.14,279.61q7.5,0,15,0c0,6.2,0,12.4,0,18.61l-3.24,0q0-7.74,0-15.47l-8.5,0q0,7.75,0,15.51h-3.29C164.14,292,164.15,285.81,164.14,279.61Z"/><path class="cls-1" d="M188,279.59q1.8,0,3.6,0c2.21,6.18,4.48,12.34,6.66,18.54l-3.74.11c-.57-1.65-1.13-3.29-1.7-4.93h-6.12c-.58,1.63-1.14,3.27-1.71,4.91l-3.67-.05c2.15-6.22,4.42-12.4,6.68-18.58m1.7,4.49q-1,3.17-2.08,6.33l4.36,0C191.17,288.31,190.42,286.2,189.66,284.08Z"/><path class="cls-1" d="M200.13,279.67l3.61,0q0,3.79,0,7.62c2.79,0,5.59,0,8.38,0q0-3.78,0-7.54c1.19,0,2.4-.06,3.6-.08,0,6.19,0,12.38,0,18.58h-3.55c0-2.65,0-5.31-.05-8q-4.18,0-8.35,0c0,2.65,0,5.31-.05,8h-3.56C200.13,292,200.15,285.84,200.13,279.67Z"/><path class="cls-1" d="M220.15,279.27h3q0,9.46,0,18.93h-3Q220.14,288.73,220.15,279.27Z"/><path class="cls-1" d="M227.14,279.58l3.32.08c0,4.3,0,8.6,0,12.91,2.94-4.34,5.85-8.7,8.82-13,1.06,0,2.12,0,3.19.07,0,6.19,0,12.38,0,18.57h-3.29q0-6.46,0-12.91c-2.88,4.31-5.81,8.6-8.69,12.9l-3.31,0Q227.14,288.9,227.14,279.58Z"/><path class="cls-1" d="M255.67,279.9c4.36-2,9.82.25,10.86,5.08l-3.23.17a14.31,14.31,0,0,0-3.43-2.84,27.57,27.57,0,0,0-3.82.8l0,2.8a70.38,70.38,0,0,1,7.62,2.58c3.16,1.13,3.19,5.63,1.4,7.93-4.1,3.88-12.77,2.67-13.64-3.67l2.87-.23c1.59,1.4,3.24,3.52,5.66,2.93,1.56-.17,3.65-1.81,2.25-3.4-2.57-2.14-6.64-1.6-9-4.1C251.24,285.36,252.47,280.9,255.67,279.9Z"/><path class="cls-1" d="M268.69,279.62c1.08,0,2.16,0,3.26,0q0,9.3,0,18.61h-3.25Q268.64,288.91,268.69,279.62Z"/><path class="cls-1" d="M280.54,279.64l3.53-.14c2.36,6.18,4.58,12.42,6.78,18.67l-3.74.05-1.68-4.89-6.12,0c-.58,1.65-1.16,3.29-1.72,4.94l-3.7-.13c2.19-6.17,4.44-12.31,6.65-18.47m-.42,10.79,4.36,0q-1.05-3.17-2.07-6.32Q281.27,287.25,280.12,290.43Z"/><path class="cls-1" d="M299.39,279.61q6,0,12,0c0,.77,0,2.31,0,3.08-2.91,0-5.81,0-8.71,0v4.59l8.18,0c0,.72,0,2.17,0,2.9l-8.19,0c0,1.66,0,3.33,0,5h8.68v3q-6,0-12,0Q299.36,288.9,299.39,279.61Z"/><path class="cls-1" d="M328.39,279.61c3.27,0,6.63-.41,9.85.4,4.78,1.44,5.13,9.16.8,11.36-2.26,1.1-4.89.66-7.3.9,0,2,0,4,0,5.93h-3.35q0-9.3,0-18.59m3.36,2.72q0,3.57,0,7.14c2.3-.46,6.59.07,6.62-3.33C339,282.39,334.2,282.71,331.75,282.33Z"/><path class="cls-1" d="M353.17,280.42c4.29-2.74,11-.81,11.74,4.65l-3.07.07c-1.23-1-2.26-2.48-3.85-3-1.84.11-4.78,1.54-3.12,3.69,3.29,1.89,9.54,1.41,9.93,6.32.74,5.25-5.59,7.33-9.72,6.12-2.88-.31-4.14-3.08-5.39-5.28,1.09-.2,2.18-.38,3.28-.56,1.24,1,2.21,2.81,4,3,2,.41,4.86-.87,4.14-3.3-3-2.26-7.83-1.65-10-5.07C350.49,284.73,350.81,281.68,353.17,280.42Z"/><path class="cls-1" d="M373.94,279.61q5.89,0,11.81,0c0,1,0,2,0,3-2.87,0-5.74,0-8.6,0,0,1.66,0,3.33,0,5l7.76,0c0,.74.11,2.22.15,3l-7.93.08c0,2.47,0,5,.05,7.44l-3.24,0Q373.93,288.89,373.94,279.61Z"/><path class="cls-1" d="M392.08,279.59q1.79,0,3.57,0c2.26,6.18,4.54,12.35,6.68,18.58l-3.75,0q-.84-2.45-1.66-4.89l-6.12,0q-.87,2.46-1.73,4.92l-3.64-.07c2.12-6.22,4.4-12.39,6.65-18.56m1.74,4.5q-1.08,3.16-2.14,6.35l4.37,0Q394.93,287.26,393.82,284.09Z"/><path class="cls-1" d="M404.14,279.62c4.14.27,9.24-1.24,12.55,2,2.51,3.08.8,7.21-1.78,9.61,1.23,2.31,2.47,4.62,3.69,6.94l-4.08.07c-1.24-2.33-2.47-4.66-3.71-7l-3.33,0c0,2.32,0,4.63,0,7l-3.29,0q0-9.29,0-18.57m3.33,2.78q0,3,0,6.12c2.56-.23,7,.54,6.92-3.27C413.8,282,409.86,282.81,407.47,282.4Z"/><path class="cls-1" d="M420.39,279.63l3.82-.07c1.88,4.52,3.72,9.06,5.57,13.59,1.88-4.51,3.71-9,5.59-13.57h3.77q.06,9.31,0,18.62l-3.22,0c0-3.83,0-7.66,0-11.49-1.68,3.81-3.27,7.65-4.87,11.49l-2.61,0c-1.7-4.06-3.36-8.12-5-12.18,0,4.08,0,8.16,0,12.25h-3.06Q420.36,288.91,420.39,279.63Z"/><path class="cls-1" d="M454.35,279.57A8.79,8.79,0,0,1,465.49,286l-3.47.15c-1.37-1.79-3.13-4.37-5.75-3.76-5.41,1.52-5.75,10.22-1,12.71,4.1,1.67,6.12-4,10.23-3.34-1,1.87-1.53,4.25-3.44,5.44-3.94,2.42-10.09,1.7-12.41-2.63C447.22,289.53,448.16,281.42,454.35,279.57Z"/><path class="cls-1" d="M472.41,279.67c4.47-1.62,10.29.75,11.41,5.61.66,3.39.79,7.38-1.46,10.24-3.73,4.79-12.61,3.93-14.86-1.88-1.79-4.94-.82-12.18,4.91-14m1.89,2.85c-5.43,1.79-5.49,11-.07,12.78,4,1.1,7-3.39,6.47-7C480.7,285.09,477.67,281.53,474.3,282.52Z"/><path class="cls-1" d="M486.94,279.65q1.86-.06,3.75-.09c1.89,4.52,3.74,9.06,5.64,13.58,1.93-4.32,3.22-9,5.56-13.09,1.14-.61,2.55-.43,3.82-.68.07,6.28,0,12.55,0,18.83h-3.31c0-3.87,0-7.74,0-11.61-1.57,3.87-3.15,7.73-4.77,11.58H495q-2.57-6.06-5.09-12.12,0,6.09,0,12.17l-3-.05Q486.93,288.92,486.94,279.65Z"/><path class="cls-1" d="M509.14,279.62c3.33,0,6.77-.46,10,.44,4.78,1.68,4.91,9.54.27,11.48-2.22.84-4.67.53-7,.72,0,2,0,4,0,6h-3.3q0-9.3,0-18.58m3.32,2.77q0,3.53,0,7.05c2.31-.39,6.43,0,6.69-3.12C519.8,282.47,515,282.62,512.46,282.39Z"/><path class="cls-1" d="M528.82,279.58c1.2,0,2.4,0,3.61,0q3.35,9.25,6.68,18.53l-3.75.11c-.57-1.64-1.14-3.28-1.69-4.91l-6.12,0-1.74,4.93-3.65-.09c2.16-6.21,4.43-12.38,6.66-18.56m-.37,10.83h4.32c-.74-2.13-1.47-4.25-2.19-6.38C529.87,286.16,529.15,288.29,528.45,290.41Z"/><path class="cls-1" d="M540.94,279.67l3-.15c3,4.23,6,8.51,9,12.74q0-6.33-.05-12.65h3.22q.06,9.3,0,18.58l-3.11,0c-3-4.18-5.87-8.38-8.89-12.52,0,4.17,0,8.34,0,12.51l-3.24,0Q540.92,288.92,540.94,279.67Z"/><path class="cls-1" d="M558,279.8l3.89-.32c1.49,2.52,3,5.05,4.46,7.58,1.45-2.52,2.9-5,4.37-7.54,1.3.07,2.59.15,3.9.25-1.8,3.22-3.86,6.29-5.64,9.52-1.59,2.68-1,6-1.13,8.92h-3.13c-.19-3.14.53-6.61-1.31-9.39C561.71,285.77,559.79,282.83,558,279.8Z"/><path class="cls-1" d="M314.13,279.66l3.32-.11q0,7.83,0,15.66c2.82,0,5.64,0,8.46,0v3q-5.9,0-11.78,0C314.14,292,314.15,285.84,314.13,279.66Z"/><path class="cls-1" d="M344.39,298.2c0-6.22,0-12.43,0-18.65l3.34.1c0,6.18,0,12.37,0,18.55Z"/><g id="_2b603cff" data-name="#2b603cff"><path class="cls-3" d="M433.81,73.82c12.38-.28,24.82-.4,37.21.1-1.83,11.45-4.43,22.76-6.57,34.15-12.5.38-25,.27-37.5.07,1-9.07,3.41-17.93,5-26.93A25.09,25.09,0,0,1,433.81,73.82Z"/><path class="cls-3" d="M77.47,127.81c14.67-4.32,31.15-5,45.23,1.71a39.86,39.86,0,0,1,20.13,18.92c4.39,8.62,5.34,18.71,3.76,28.17-1.48,9.16-3.56,18.21-5.4,27.3-18.72.36-37.44.06-56.16.16-7.18.12-14.38-.34-21.54.37-.54,5-1.34,10.39,1.16,15A15.23,15.23,0,0,0,79,228c8.71.16,16.61-5.34,20.89-12.71a86.93,86.93,0,0,1,16.2,1.09c7,1.12,14.6-.26,21.15,2.62-7.36,15.61-20.45,28.69-36.58,35.09-11.79,5.28-25,6.26-37.74,4.76-10.38-2-20.8-6.38-27.85-14.55-10.15-10.92-11.91-27.09-9.13-41.19,3.42-13.73,4.22-28.36,10.8-41.13a71.7,71.7,0,0,1,40.73-34.14m1,33.78c-5,4.26-9,10.32-9.25,17,13.06.21,26.13.16,39.18,0,2.35-8.09-.45-18.63-9.08-21.58C92.21,154,84.14,156.92,78.47,161.59Z"/><path class="cls-3" d="M495,135.08c12.59-8.14,28-11.09,42.81-9.86,9.21.57,18.58,3.41,25.72,9.45,11,8.29,16.65,22.62,15.6,36.22-12.38,1.94-24.86,3-37.25,4.87-.82-6-1.33-13-6.68-16.9-4-2.61-9.34-4-14-2.31-8.92,2.37-15.56,10-18.41,18.58-2.57,8.35-3.72,17.06-5.71,25.56a38.61,38.61,0,0,0-1,14.51c1.15,7,7.47,13.29,14.87,12.87,5.44.6,10.52-2,14.71-5.23,4.42-3.63,7-8.9,9.11-14.07,9.11.54,18.1,2.21,27.16,3.28a31.23,31.23,0,0,1,9.23,1.7A68.3,68.3,0,0,1,543.81,248c-10.94,7-23.72,11.71-36.83,11.31-16.33.82-33.95-5.95-43-20.1-6.75-10.51-7.42-23.59-5.35-35.59,2.11-9.18,3.66-18.47,5.77-27.65C468.37,158.88,480.21,144.22,495,135.08Z"/><path class="cls-3" d="M174.55,127.76q53.14-.33,106.29,0a31.24,31.24,0,0,1-.81,7.46c-7.92,40.27-15.59,80.58-23.58,120.83-12.49.24-25,.19-37.47,0,2.19-15.07,5.7-29.94,8.33-44.94,3.24-16.33,6.27-32.7,9.53-49-1.47-.86-3.24-.52-4.84-.6-8.82.13-17.63-.09-26.44.13-2.21,12.34-4.88,24.59-7.14,36.92-2,8.92-3.18,18-5.74,26.81-3.26,11.82-11.13,22.64-22.25,28.14-12.9,6.62-27.83,6.23-41.92,5.55,1.93-10.35,3.73-20.74,6.15-31,5.32-.57,11.46,1.39,16.05-2.19,3.69-2.35,5.5-6.58,6.49-10.67C163,186.08,168.67,156.9,174.55,127.76Z"/><path class="cls-3" d="M296.83,127.7c36.06-.07,72.13-.17,108.19,0a81.8,81.8,0,0,1-2.2,13.89c-6.9,36.21-14,72.38-20.93,108.6-.53,2.28-.15,6.72-3.79,6-11.63-.16-23.27.09-34.9-.17,2.36-16.07,6.09-31.92,8.92-47.91q4.47-23.25,9-46.48c-11.08-.21-22.16-.12-33.24-.05-6.24,31.51-12,63.12-18.55,94.57-12.51-.21-25,.32-37.55-.22,7.68-40.28,15.65-80.5,23.38-120.77A66.14,66.14,0,0,1,296.83,127.7Z"/><path class="cls-3" d="M423,127.77q18.67-.33,37.37,0c-1.58,12.6-4.75,25-6.85,37.5-5.84,30.22-11.86,60.4-17.45,90.67-12.53.56-25.09.05-37.63.21,1.53-12.44,4.66-24.62,6.75-37C411.24,188.73,416.89,158.2,423,127.77Z"/></g></svg>