<svg width="73" height="68" viewBox="0 0 73 68" fill="none" xmlns="http://www.w3.org/2000/svg">
<path d="M7.21564 43.1932H6.19457V40.4597H1.26761V43.1932H0.250977V37.0469H1.26761V39.54H6.19457V37.0469H7.21564V43.1932Z" fill="white" fill-opacity="0.7"/>
<path d="M10.2907 37.0469H9.26855V43.1932H10.2907V37.0469Z" fill="white" fill-opacity="0.7"/>
<path d="M19.8851 40.0263C19.8851 41.0296 19.525 41.8324 18.8114 42.4512C18.0934 43.0634 17.1454 43.3742 15.9609 43.3742C14.8789 43.3742 13.9764 43.0983 13.2529 42.5498C12.4285 41.9266 12.019 41.1138 12.019 40.1121C12.019 39.1287 12.4329 38.3182 13.2689 37.6838C13.9964 37.1298 14.9266 36.8506 16.0468 36.8506C17.3981 36.8506 18.5061 37.3464 19.376 38.3365L18.4241 38.8135C17.7848 38.1309 16.9604 37.7863 15.9609 37.7863C15.1775 37.7863 14.526 37.978 13.9964 38.3631C13.3847 38.8124 13.0811 39.3941 13.0811 40.1116C13.0811 40.8041 13.3437 41.3637 13.8695 41.793C14.3958 42.2257 15.0944 42.439 15.9609 42.439C17.32 42.439 18.2025 41.9111 18.6097 40.8507H15.7493V39.9332H19.8851V40.0263Z" fill="white" fill-opacity="0.7"/>
<path d="M28.5845 43.1932H27.5629V40.4597H22.637V43.1932H21.6182V37.0469H22.637V39.54H27.5629V37.0469H28.5845V43.1932Z" fill="white" fill-opacity="0.7"/>
<path d="M36.8133 40.0264C37.5136 40.2624 37.8654 40.7826 37.8654 41.5782C37.8654 42.6525 37.0887 43.1927 35.5363 43.1927H30.6365V37.043H35.6055C36.2271 37.043 36.718 37.1975 37.0754 37.5017C37.4333 37.8081 37.6111 38.2181 37.6111 38.7256C37.6111 39.2873 37.3435 39.7234 36.8133 40.0264ZM35.6238 39.6192C35.9086 39.6192 36.1435 39.5372 36.3313 39.376C36.5236 39.2125 36.6189 39.0136 36.6189 38.7809C36.6189 38.5322 36.5313 38.3305 36.3612 38.1848C36.1956 38.0352 35.959 37.9621 35.6643 37.9621H31.6553V39.6197H35.6238V39.6192ZM35.5457 42.2757C36.3945 42.2757 36.82 41.9965 36.82 41.4369C36.82 40.8342 36.4521 40.5333 35.708 40.5333H31.6559V42.2757H35.5457Z" fill="white" fill-opacity="0.7"/>
<path d="M46.0555 43.1932H39.6177V37.0469H45.8156V37.9621H40.6349V39.54H44.2372V40.4597H40.6349V42.2763H46.0555V43.1932Z" fill="white" fill-opacity="0.7"/>
<path d="M54.565 43.1932H53.3794L51.7135 40.8497H48.6109V43.1932H47.5898V37.0469H52.4403C53.0863 37.0469 53.5927 37.2203 53.9595 37.5654C54.329 37.9161 54.5146 38.3876 54.5146 38.9821C54.5146 39.5034 54.3623 39.9212 54.062 40.2375C53.785 40.5339 53.4027 40.719 52.9185 40.8004L54.565 43.1932ZM52.2874 39.9317C53.0736 39.9317 53.4692 39.617 53.4692 38.9815C53.4692 38.3017 53.042 37.9621 52.1921 37.9621H48.6109V39.9317H52.2874Z" fill="white" fill-opacity="0.7"/>
<path d="M63.1262 43.1932H61.9417L60.2746 40.8497H57.1726V43.1932H56.1543V37.0469H61.0004C61.6491 37.0469 62.1544 37.2203 62.5212 37.5654C62.8918 37.9161 63.0758 38.3876 63.0758 38.9821C63.0758 39.5034 62.9245 39.9212 62.6242 40.2375C62.3422 40.5339 61.966 40.719 61.4785 40.8004L63.1262 43.1932ZM60.8469 39.9317C61.6369 39.9317 62.0297 39.617 62.0297 38.9815C62.0297 38.3017 61.6043 37.9621 60.7583 37.9621H57.1732V39.9317H60.8469Z" fill="white" fill-opacity="0.7"/>
<path d="M71.4739 37.0469L68.1109 40.7649V43.1932H67.0926V40.7649L63.728 37.0469H65.0023L67.6084 39.9151L70.2035 37.0469H71.4739Z" fill="white" fill-opacity="0.7"/>
<path d="M71.528 33.7953L70.8294 34.3117H61.1739C61.6315 33.8884 63.1124 32.2252 62.8177 28.6085C62.7418 27.6622 62.426 26.7719 61.9556 25.9503C62.2531 26.5664 62.4509 27.2307 62.5168 27.9487C62.8947 32.0546 61.3201 33.7765 60.6603 34.3111H49.3338L49.3199 33.1731V21.256C49.7792 21.4139 50.2285 21.5774 50.6634 21.7519C52.3643 22.7392 54.1084 24.2295 54.4424 26.332C54.6474 27.629 54.6984 29.2335 54.4469 30.2739C53.8319 32.8191 52.0169 34.059 52.0169 34.059H59.6204C59.6204 34.059 62.3312 32.9609 61.7157 27.2711C61.3118 23.5375 57.1815 21.2932 54.8186 20.4084C53.0756 19.7147 51.2308 19.1441 49.3199 18.682V17.5224C49.3315 17.4621 49.3393 17.4011 49.3393 17.3391C49.3393 15.5064 54.0823 14.8881 54.0823 14.8881V14.1529L52.9676 13.4531C52.9676 13.4531 52.4939 14.1529 52.0535 14.1529H50.5787C48.7847 14.1529 45.8379 14.626 45.8379 14.626C45.8379 14.626 42.9802 14.1529 40.9187 14.1529C39.7812 14.1529 36.7058 14.1346 36.7058 14.1346L37.7164 14.8188C37.7164 14.8188 42.4528 15.098 42.4528 17.3391C42.4528 17.4133 42.4611 17.4781 42.4738 17.5485C38.4688 17.1502 34.3457 17.1845 30.3561 17.6194V17.5202C30.3667 17.4621 30.3739 17.4011 30.3739 17.3391C30.3739 15.5064 35.1147 14.8881 35.1147 14.8881V14.1529L33.9967 13.4531C33.9967 13.4531 33.749 14.134 33.6825 14.134C32.8493 14.134 32.2243 14.1523 31.6132 14.1523C29.816 14.1523 26.7162 14.6255 26.7162 14.6255C26.7162 14.6255 24.0137 14.1523 21.9566 14.1523C20.8147 14.1523 17.7332 14.134 17.7332 14.134L18.7499 14.8183C18.7499 14.8183 23.4879 15.0975 23.4879 17.3385C23.4879 17.4166 23.4957 17.4875 23.5062 17.5585V18.8078C22.4918 19.0698 20.8518 19.5147 20.0618 19.8327C18.3515 20.5269 15.8163 21.2616 15.8163 21.2616C15.8163 21.2616 11.9974 21.3469 9.86716 21.3469H6.54743V22.0167C6.54743 22.0167 11.4533 22.2993 11.4533 24.537C11.4533 24.6123 11.4616 24.6843 11.4744 24.7564V34.0579H18.562V24.7176C18.5787 24.6611 18.5803 24.5963 18.5814 24.537C18.623 22.3043 21.4169 21.1474 23.5062 20.5458V21.133C21.5383 21.7862 19.3155 22.927 19.2812 24.9303C19.2762 24.9913 19.2762 25.0544 19.2618 25.1126V34.3111H0.0991211L1.11631 34.8696H72.6444V34.3111L71.528 33.7953ZM49.3199 21.071C49.3737 21.0882 49.4241 21.1042 49.4734 21.1242C49.8235 21.2909 50.1931 21.4837 50.5665 21.6959C50.4363 21.6289 50.2967 21.5585 50.1709 21.4987C49.8928 21.3862 49.608 21.281 49.3199 21.1752V21.071ZM23.5056 33.1737L23.4929 34.3117H19.592V25.3913C19.6058 25.3337 19.6097 25.2733 19.6097 25.2112C19.6097 23.2428 21.5998 22.1591 23.5056 21.5236V33.1737ZM42.4738 33.0197C42.4738 33.0197 40.0389 33.0507 36.287 33.0507C32.534 33.0507 30.3561 33.0197 30.3561 33.0197V20.0067C34.6709 19.343 38.7751 19.2948 42.4738 19.7391V33.0197ZM42.4738 19.5275C38.7895 19.03 34.6848 19.03 30.3561 19.6449V19.1829C34.7047 18.6327 38.8095 18.7108 42.4738 19.271V19.5275Z" fill="white" fill-opacity="0.7"/>
<path d="M70.8954 46.4266H59.9135C59.7384 46.3064 59.621 46.2532 59.621 46.2532H52.0175C52.0175 46.2532 52.1062 46.3191 52.238 46.4266H18.5621V46.2532H11.4744V46.4266H0L1.11471 46.984H11.4744V55.5625C11.4617 55.6318 11.4534 55.7032 11.4534 55.7813C11.4534 58.0157 6.54749 58.3027 6.54749 58.3027V58.9736H9.8661C11.998 58.9736 15.8163 59.0556 15.8163 59.0556C15.8163 59.0556 18.3516 59.7914 20.0618 60.4828C20.8508 60.8019 22.4918 61.2457 23.5101 61.5055V61.9427C22.5455 61.6817 21.386 61.351 20.7621 61.0978C19.0491 60.3986 16.5139 59.8955 16.5139 59.8955C16.5139 59.8955 12.695 59.8102 10.5647 59.8102H7.86496L7.91039 60.2562L16.3831 60.2673C16.3831 60.2673 19.6014 60.7803 21.3128 61.4773C21.8192 61.6828 22.6852 61.9244 23.5101 62.131V64.1554C23.4957 64.2269 23.4879 64.2984 23.4879 64.3743C23.4879 66.6153 17.7333 66.8718 17.7333 66.8718L18.7499 67.9788H21.9566C24.0137 67.9788 26.7151 67.4984 26.7151 67.4984C26.7151 67.4984 29.8171 67.9788 31.6133 67.9788H35.1147V67.2419L33.9967 66.1305L33.4499 66.5472C33.4499 66.5472 30.3739 65.7499 30.3739 64.3743C30.3739 64.3106 30.3689 64.2507 30.3562 64.1948V63.4491C34.3574 63.9804 38.4594 64.0851 42.475 63.7521V64.156C42.4611 64.2275 42.4528 64.2989 42.4528 64.3748C42.4528 66.6159 36.5995 66.8679 36.5995 66.8679L37.717 67.9793H40.9182C42.9808 67.9793 45.8357 67.499 45.8357 67.499C45.8357 67.499 48.7864 67.9793 50.5793 67.9793H54.0802V67.2425L52.9666 66.1311C52.9666 66.1311 52.4768 66.4159 52.3167 66.3843C50.9244 66.0857 49.341 65.6602 49.341 64.3748C49.341 64.3111 49.3344 64.2513 49.3189 64.1942V62.7272C51.4469 62.2573 53.52 61.6623 55.4918 60.9188C59.4465 59.4307 62.2044 56.7603 62.6083 53.988C63.3523 48.8748 60.8786 47.0604 60.8786 47.0604H60.7517C61.4975 47.6521 62.8798 49.3557 62.416 53.6134C62.0509 56.9193 58.1849 59.5194 55.8198 60.4091C53.7893 61.2241 51.6014 61.8712 49.3194 62.3754V61.6374C51.2319 61.1776 53.0796 60.6041 54.8198 59.9105C57.1833 59.0263 61.3124 56.7802 61.7152 53.0467C62.0903 49.5978 61.2421 47.8438 60.5174 46.9862H72.6456V46.4288L71.5281 45.9053L70.8954 46.4266ZM36.2876 48.6615C40.0395 48.6615 42.4755 48.6931 42.4755 48.6931V61.0474C38.8101 61.6114 34.7014 61.6867 30.3568 61.136V48.6931C30.3562 48.6926 32.5324 48.6615 36.2876 48.6615ZM18.582 55.7813C18.5809 55.7165 18.5793 55.6578 18.5627 55.5996V46.984H19.2624V56.1819C19.2751 56.2384 19.2768 56.2999 19.279 56.3658C19.2934 57.121 19.6253 57.7509 20.1289 58.2789C19.2424 57.6512 18.6003 56.8395 18.582 55.7813ZM20.5389 58.5481C20.0192 58.0202 19.6707 57.3969 19.6546 56.6445C19.6546 56.5775 19.6546 56.5188 19.6391 56.4606V46.984H23.5251L23.5107 48.5391V59.7709C22.5533 59.4961 21.4591 59.1033 20.5389 58.5481ZM42.4755 63.4158C38.4433 63.7687 34.3153 63.7006 30.3568 63.233V62.6983C34.3463 63.1366 38.4694 63.1693 42.4755 62.772V63.4158ZM54.4475 50.0433C54.699 51.0832 54.648 52.691 54.443 53.9852C54.0281 56.5874 51.4613 58.2678 49.4729 59.1919C49.4219 59.2113 49.3709 59.2296 49.3189 59.2473V48.5391L49.336 46.984H52.8109C53.3804 47.605 54.1001 48.6095 54.4475 50.0433Z" fill="white" fill-opacity="0.7"/>
<path d="M48.2226 33.7948L48.2032 32.4767V16.8227C48.2187 16.7679 48.2253 16.7036 48.2253 16.6427C48.2253 14.8094 52.9672 14.1894 52.9672 14.1894V13.4531H49.4619C47.6696 13.4531 44.7244 13.9307 44.7244 13.9307C44.7244 13.9307 41.8668 13.4531 39.8008 13.4531H36.6002V14.1224C36.6002 14.1224 41.3393 14.4055 41.3393 16.6427C41.3393 16.7197 41.346 16.79 41.3615 16.8609V32.3194C41.3615 32.3194 38.9227 32.3537 35.1691 32.3537C31.4156 32.3537 29.2422 32.3194 29.2422 32.3194V16.8227C29.2516 16.7679 29.2627 16.7036 29.2627 16.6427C29.2627 14.8094 33.9979 14.1894 33.9979 14.1894V13.4531H30.4954C28.7048 13.4531 25.6011 13.9307 25.6011 13.9307C25.6011 13.9307 22.9002 13.4531 20.8387 13.4531H17.6375V14.1224C17.6375 14.1224 22.3739 14.4055 22.3739 16.6427C22.3739 16.7197 22.3822 16.79 22.395 16.8609V32.4773L22.3795 33.7953H0.0012207V34.3532H71.5293V33.7953H48.2226V33.7948Z" fill="white" fill-opacity="0.7"/>
<path d="M0 46.4628H22.4054L22.391 47.8401V63.4597C22.3816 63.5301 22.3727 63.6027 22.3727 63.6752C22.3727 65.9174 17.6363 66.1988 17.6363 66.1988V66.8675H20.8386C22.8974 66.8675 25.5999 66.3872 25.5999 66.3872C25.5999 66.3872 28.7035 66.8675 30.4969 66.8675H33.9967V66.1307C33.9967 66.1307 29.2615 65.5096 29.2615 63.6752C29.2615 63.6148 29.2498 63.5528 29.2409 63.4979V47.9968C29.2409 47.9968 31.4149 47.9664 35.1679 47.9664C38.9209 47.9664 41.3575 47.9968 41.3575 47.9968V63.4597C41.3448 63.5301 41.3381 63.6027 41.3381 63.6752C41.3381 65.9174 36.5962 66.1988 36.5962 66.1988V66.8675H39.8024C41.8656 66.8675 44.7232 66.3872 44.7232 66.3872C44.7232 66.3872 47.6679 66.8675 49.4624 66.8675H52.966V66.1307C52.966 66.1307 48.2241 65.5096 48.2241 63.6752C48.2241 63.6148 48.2175 63.5528 48.2036 63.4979V47.8401L48.2213 46.4628H71.5276V45.9043H0V46.4628Z" fill="white" fill-opacity="0.7"/>
<path fill-rule="evenodd" clip-rule="evenodd" d="M36.3345 6.75358C36.7467 6.3231 37.1517 5.8915 37.5672 5.46213C37.8631 4.97681 37.7301 3.67264 37.9927 3.31197C37.8753 2.71473 37.2431 2.62276 36.9495 2.2089C36.6769 1.82773 36.3229 1.49919 36.093 1.10306C35.8736 0.729651 35.7389 0.383379 35.4769 0.0587199C35.4104 0.0110736 35.4209 0.022161 35.2957 0C35.0453 0.450423 35.0531 1.08478 34.8004 1.59781C34.4907 2.22663 33.6154 2.46485 33.3893 3.19174C32.7483 4.19397 33.8154 6.19456 34.3705 6.63114C34.6159 6.81951 34.8824 6.85606 35.047 7.122C35.2614 7.4594 34.9062 8.23892 35.3528 8.46995C35.4209 8.52147 35.3694 8.49433 35.4769 8.53477C35.6376 8.08546 35.6481 7.42728 35.909 7.06162C36.022 6.77519 36.1068 6.90483 36.3345 6.75358ZM36.4608 2.57622H36.5838V2.82276H36.4608V2.57622ZM36.3345 2.94519H36.4614C36.4337 3.07206 36.4431 3.06154 36.3977 3.12747V3.19118H36.2758C36.2946 3.04824 36.304 3.03771 36.3345 2.94519ZM36.0924 3.19118C36.0414 3.1186 36.0414 3.08924 36.0304 2.94519C36.0769 3.01777 36.0769 3.04824 36.0924 3.19118ZM35.9683 2.63715V2.8837H35.9085C35.8736 2.78397 35.852 2.73744 35.8448 2.57566C35.8835 2.59561 35.9268 2.61942 35.9683 2.63715ZM34.7999 2.02441C35.0159 2.07649 34.9672 2.10973 35.1074 2.20834C35.0797 2.8416 34.6735 2.79894 34.4359 3.19064H34.2492C34.458 2.7995 34.7821 2.62885 34.7999 2.02441ZM33.9422 3.25269H34.0663V3.37567H33.9422V3.25269ZM35.5988 6.99845C35.5362 6.88654 35.5201 6.8943 35.4758 6.75358C35.4292 6.65607 35.5295 6.47878 35.6603 6.38238V6.25883C35.4592 6.31534 35.3977 6.35688 35.2946 6.50315C35.1212 6.47821 34.7594 6.41617 34.6154 6.32254C34.5356 6.20453 34.5384 5.95024 34.3699 5.76963C33.7583 5.09538 33.6314 4.76518 33.7544 3.68206C33.9744 3.76184 34.0364 3.8876 34.2492 3.98788C34.3666 3.69314 34.6093 3.3995 34.8641 3.06542C34.8819 3.04825 34.9029 3.0283 34.9223 3.0078V3.06542H35.0464C35.0314 3.28315 35.0287 3.32637 34.9223 3.43773V3.49812C35.2974 3.38011 35.4315 3.01334 35.5988 2.69976C35.714 2.78065 35.7057 2.82276 35.8442 2.8837C35.8038 3.44825 34.5622 4.92751 34.1877 5.21782V5.33859C34.8392 5.10811 35.2436 4.08095 35.7207 3.62222V3.56127C35.9633 3.7103 35.7062 4.06101 35.5362 4.17403V4.29592C35.8353 4.19509 36.0653 3.7973 36.1522 3.49868H36.2752C36.252 3.71641 36.2702 3.69979 36.1522 3.80394V4.11142C36.1716 4.09203 36.1954 4.07209 36.2159 4.04993C36.4514 3.87874 36.4525 3.53137 36.6409 3.31252V3.25379H36.7678C36.7013 3.71086 36.539 4.20726 36.2752 4.48095V4.66323C36.5234 4.49758 36.8863 4.08428 37.0104 3.8045H37.1329C37.1251 4.09259 37.0886 4.21613 36.9489 4.35685V4.72417H37.0736C37.1329 4.59065 37.1728 4.55187 37.196 4.35685H37.319C37.3384 4.37901 37.3622 4.39785 37.38 4.4189C37.2664 5.16905 36.791 6.01949 36.2758 6.38293C36.0143 6.5713 35.7849 6.67712 35.6614 6.99901H35.5988V6.99845ZM35.5362 2.94519C35.5024 3.04381 35.4852 3.09312 35.4763 3.25323C35.5611 3.23384 35.6409 3.21113 35.7207 3.19174C35.6802 2.96846 35.7312 3.02054 35.5362 2.94519ZM35.4132 3.37567C35.4564 3.28315 35.4935 3.34687 35.4132 3.25269C35.3079 3.47984 35.1932 3.61613 34.9866 3.74411V3.92527H35.1068C35.2281 3.7441 35.3522 3.63274 35.4132 3.37567ZM34.6824 3.86544H34.555C34.6187 3.91696 34.5716 3.88815 34.6824 3.92527V3.86544ZM34.3705 4.17403H34.4359C34.3528 4.02334 34.4625 4.12915 34.3084 4.04881C34.2026 4.18455 34.109 4.2732 33.9428 4.35575C33.9206 4.4178 33.9012 4.47985 33.8802 4.54135H33.9428V4.60284C34.1616 4.53082 34.3001 4.3973 34.3705 4.17403ZM36.1522 4.29592C36.129 4.16683 36.1395 4.17846 36.0924 4.11086C35.852 4.46378 35.1145 5.46546 34.7999 5.70868V5.76963C35.5029 5.62946 35.6431 4.65603 36.1522 4.29592ZM34.4929 4.6034C34.4553 4.49703 34.4835 4.54523 34.4353 4.47986C34.3079 4.58235 34.1877 4.68483 34.0658 4.78622V4.91144C34.3522 4.85216 34.3156 4.7419 34.4929 4.6034ZM36.7678 4.66212C36.7101 4.46378 36.8005 4.56739 36.6409 4.47986C36.5611 4.61282 36.4525 4.86435 36.334 4.97127V5.15631H36.3966C36.4946 4.96628 36.6187 4.80229 36.7678 4.66212ZM35.8448 5.09482V5.21782C36.0835 5.13471 36.1201 4.9973 36.2752 4.84827C36.2204 4.65048 36.3096 4.75575 36.1522 4.66212C36.0702 4.83054 35.9883 4.98401 35.8448 5.09482ZM36.3971 5.46213V5.58623C36.6293 5.46601 36.7151 5.3203 36.8863 5.15687C36.8343 4.95797 36.9229 5.06103 36.7678 4.97183C36.6957 5.17183 36.539 5.33194 36.3971 5.46213ZM34.6824 5.27819C34.5661 5.44385 34.4436 5.49372 34.3705 5.70868C34.6226 5.66602 34.6735 5.62225 34.7417 5.40064H34.7999C34.7201 5.25105 34.8314 5.35742 34.6824 5.27819ZM35.7844 5.33859H35.6603C35.5988 5.42058 35.5356 5.50259 35.4758 5.58569C35.5849 5.6699 35.7594 5.37626 35.7844 5.33859ZM36.2165 5.40064V5.33859C35.8486 5.41504 35.6996 5.717 35.4137 5.89152V6.07711C35.8448 5.99234 35.9123 5.61339 36.2165 5.40064ZM35.9683 5.89152V6.01284C36.0298 5.99512 36.0924 5.97406 36.1522 5.95301C36.1716 5.91201 36.1954 5.87211 36.2159 5.83222C36.1522 5.81228 36.0918 5.79012 36.0298 5.77017C35.9894 5.87488 36.0137 5.83057 35.9683 5.89152ZM34.9871 6.19955H35.0464C35.0087 6.09263 35.0337 6.14027 34.9871 6.07711V6.19955ZM33.7544 7.30428C33.5522 7.245 33.3472 7.17963 33.1444 7.12145C32.3128 6.73087 31.4131 6.117 30.1954 6.13695C30.079 6.22559 29.9172 6.18349 29.7671 6.25939C28.9327 6.69596 28.1743 7.54861 26.8823 7.54861C26.8601 7.57021 26.8429 7.59126 26.8169 7.61231C26.8873 8.51205 28.069 8.34474 28.7843 8.59349C29.3183 8.77854 30.3233 9.74587 31.1161 9.51318C31.4153 9.4262 32.0004 9.26775 32.2829 9.08603C32.9982 8.62674 33.1965 7.65663 34.1877 8.59349C34.5129 8.56357 34.5168 8.45997 34.6154 8.22783C34.3312 7.94639 34.094 7.52201 33.7544 7.30428ZM32.1001 7.24444C32.0641 7.43447 32.0896 7.39181 31.9776 7.48766V7.54749C32.202 7.51259 32.3389 7.43004 32.4696 7.30372H32.6541V7.42616C32.2646 7.61564 31.8054 7.99848 31.3599 8.0428C31.3848 7.78517 31.4264 7.6871 31.3599 7.48766C31.5666 7.39956 31.6175 7.44721 31.6696 7.17906C31.8153 7.19956 31.9577 7.22228 32.1001 7.24444ZM31.2386 6.99845C31.3599 6.97906 31.4851 6.95691 31.6109 6.93752V7.18017H31.2386V6.99845ZM30.4413 6.75358C30.6801 6.75801 30.7533 6.76687 30.8718 6.87491H30.9959C30.9555 6.91646 30.9111 6.9569 30.8718 6.99901C30.9516 7.18849 31.002 7.1691 31.1799 7.245C31.0768 7.36578 30.9765 7.48821 30.8718 7.61231C30.4447 7.59569 30.4868 7.47215 30.1355 7.42672C30.2585 7.03613 30.5599 7.09098 30.4413 6.75358ZM29.7061 8.46883C29.5793 8.44667 29.5887 8.45666 29.5222 8.40846H29.3964V8.34806C29.5167 8.28103 29.6679 8.19847 29.7671 8.10152C29.874 8.13974 29.8258 8.11426 29.8918 8.16357H29.9494C29.8707 8.26495 29.7843 8.368 29.7061 8.46883ZM30.2569 8.40846C30.1931 8.45666 30.2009 8.44667 30.074 8.46883V8.28545H30.3233C30.2779 8.39404 30.3078 8.34807 30.2569 8.40846ZM30.4413 8.10096C30.6292 8.00345 30.8325 7.86661 30.9959 7.73586C31.0419 7.81121 31.0026 7.79349 30.9959 7.97853C30.884 8.03338 30.7704 8.08378 30.689 8.16301H30.4413V8.10096ZM31.5494 8.83948C31.4857 8.88879 31.5339 8.86053 31.4236 8.90153C31.3821 8.82286 31.3572 8.77411 31.3012 8.71594V8.65499C31.4436 8.64113 31.4785 8.64446 31.5488 8.59293H31.7926C31.7239 8.7802 31.735 8.77688 31.5494 8.83948ZM32.1001 8.40846C32.0807 8.43173 32.0624 8.45166 32.0392 8.46883H31.9189V8.3475H32.1001V8.40846ZM32.222 8.22727C32.3272 8.26495 32.2801 8.23836 32.345 8.28545C32.2414 8.24556 32.2885 8.27381 32.222 8.22727ZM31.3017 8.59293C31.1328 8.6633 30.7051 8.58519 30.6292 8.53421C30.6059 8.51205 30.5848 8.49377 30.5665 8.46939C30.6657 8.38795 30.6369 8.43394 30.6895 8.28601C30.8846 8.2572 31.1333 8.37355 31.4242 8.28601C31.6696 8.21177 32.7666 7.61232 32.8985 7.42672H33.0237C32.9322 7.65166 31.5732 8.48158 31.3017 8.59293ZM43.2139 7.36521C42.6382 6.64719 41.1368 6.10038 39.9579 6.13639C39.5756 6.40675 38.6941 6.56409 38.2398 6.81174C38.0514 6.91645 37.7622 7.09762 37.5661 7.24444C37.3789 7.44888 37.1949 7.65109 37.0099 7.85497C36.8409 7.9547 36.6963 7.89818 36.5185 7.97907C36.2941 8.08489 36.047 8.29211 35.7838 8.40846C35.8176 8.60458 35.8375 8.58962 35.9079 8.71649C36.3123 8.80625 36.8126 8.69045 37.3179 8.84004C37.8974 9.01012 39.2044 9.73202 40.0216 9.51318C41.4149 9.14253 42.1252 8.03615 43.7662 7.92091C43.7817 7.89875 43.8067 7.87658 43.8272 7.85553C43.7402 7.47159 43.41 7.61231 43.2139 7.36521ZM37.8121 7.79459V7.85443H37.6869C37.7428 7.72368 37.7401 7.76855 37.8121 7.67271H37.8719C37.898 7.79349 37.8431 7.75249 37.8121 7.79459ZM41.3717 6.93752H41.4936C41.513 6.95691 41.5324 6.97906 41.5562 6.99845C41.4648 7.1497 41.5728 7.07048 41.3717 7.12145V6.93752ZM39.6504 6.81174C39.8891 6.77684 40.3562 6.66548 40.5717 6.81174C40.7479 6.81894 40.836 6.83779 40.9429 6.87435V6.93696C40.7756 6.97297 40.6205 7.08821 40.5108 7.1209C40.0581 7.24444 39.9556 6.84387 39.5905 7.17906H39.4659C39.5368 7.23058 39.5717 7.23059 39.7113 7.24388V7.36467C39.5119 7.46993 39.4332 7.57408 39.1617 7.6112C39.2116 7.19346 39.4526 7.07103 39.6504 6.81174ZM40.082 7.17962C39.9767 7.24499 39.9412 7.24665 39.8343 7.17962H40.082ZM39.775 7.67325C39.6681 7.63336 39.7124 7.66162 39.6498 7.61231C39.7584 7.65165 39.7113 7.62228 39.775 7.67325ZM39.2204 7.92035C39.1168 7.97243 39.1418 7.97132 39.0376 7.92035H39.2204ZM38.9152 7.30428H39.1008C38.9739 7.44943 38.9412 7.3918 38.9152 7.67325H38.5473C38.6659 7.54804 38.7922 7.42616 38.9152 7.30428ZM38.6082 8.28545C38.4398 8.24556 38.5046 8.32479 38.4869 8.16301H38.6082V8.28545ZM39.8997 8.96081C39.8797 8.98297 39.8592 9.00126 39.8343 9.02398H39.7113V8.90153H39.8997V8.96081ZM40.6343 8.83948V8.90153C40.4842 8.81843 40.5928 8.93145 40.5102 8.77964H40.4504C40.5069 8.64668 40.5024 8.68602 40.5717 8.59239H40.8171C40.7612 8.77688 40.795 8.76081 40.6343 8.83948ZM41.4936 7.97907C41.4127 7.99902 41.3274 8.02173 41.2498 8.04334V8.22727H41.4321C41.3202 8.31481 41.0903 8.51593 40.8775 8.46939C40.8266 8.3669 40.8227 8.291 40.6349 8.34806C40.4626 8.39903 40.2781 8.56025 40.0227 8.59293V8.40846C39.7202 8.45555 39.4027 8.60458 39.2215 8.7802H38.975V8.71649C39.3002 8.55915 39.5468 8.34307 39.8354 8.16357V8.10152C39.4542 8.19182 39.0869 8.35138 38.8548 8.59349H38.7318V8.46939C39.1456 8.22728 39.6864 8.004 40.0227 7.67325H40.1418C40.0919 7.63003 40.006 7.59237 39.959 7.54805C39.9357 7.52921 39.9157 7.5076 39.9008 7.48821C40.047 7.41619 40.2587 7.33918 40.39 7.245H40.5119C40.4465 7.38738 40.3944 7.41342 40.2664 7.48821C40.3501 7.55636 40.4465 7.58461 40.5734 7.61231V7.79514C40.6991 7.77242 40.8188 7.7547 40.9446 7.73642C40.9651 7.7547 40.9845 7.77242 41.0022 7.79514C40.9446 7.85497 40.8792 7.9209 40.8194 7.97907H40.7595V8.04334C41.0022 7.99902 41.252 7.95913 41.4958 7.92035V7.97907H41.4936ZM41.739 7.79459C41.364 7.72368 41.1523 7.55581 40.6969 7.54805C40.7662 7.41287 40.7828 7.45662 40.877 7.36521H40.9423C40.8869 7.23391 40.887 7.27823 40.8166 7.17962C40.9994 7.20787 41.0254 7.21286 41.1235 7.30428H41.6133C41.5296 7.42284 41.5363 7.43447 41.3712 7.48821C41.4692 7.60511 41.5579 7.63668 41.7385 7.67325V7.79459H41.739ZM42.0471 8.04334C41.9989 7.97519 42.0077 7.98683 41.9834 7.85497H42.1656C42.108 7.99126 42.1108 7.94638 42.0471 8.04334ZM40.1412 7.85497C40.072 7.95248 40.0731 7.90594 40.0221 8.04334H39.8997C40.047 8.13586 40.1529 8.08489 40.2648 7.97907H40.3263C40.236 7.82893 40.3446 7.90594 40.1412 7.85497ZM40.3889 8.22727C40.5689 8.19847 40.5955 8.19625 40.6975 8.10096H40.7573V8.04334H40.4504C40.4282 8.10096 40.4099 8.16356 40.3889 8.22727Z" fill="white" fill-opacity="0.7"/>
<path fill-rule="evenodd" clip-rule="evenodd" d="M34.6159 7.42399C34.6553 7.39796 34.4016 6.91041 34.3002 6.79074C34.0758 6.52702 33.7495 6.37302 33.4741 6.15529C33.1162 5.87329 32.8802 5.37466 32.5888 5.01565C32.5677 4.99183 32.5444 4.97243 32.5223 4.94971C32.4791 5.07825 32.5029 5.14473 32.4608 5.20346C32.4403 5.22673 32.4181 5.24502 32.396 5.26884V5.20346H32.2702C32.3699 4.99293 32.4713 4.76468 32.5223 4.50761C32.3721 4.32423 32.3511 4.06327 32.2076 3.87268C32.1228 3.76299 31.9727 3.74638 31.8879 3.61895C31.5932 3.59735 31.2957 3.57463 31.0026 3.55469C30.7478 3.77851 30.4336 3.75912 30.2984 4.12533C29.8458 4.78075 30.5101 5.36192 30.8081 5.77578C30.9904 5.7719 31.155 5.77189 31.253 5.84114C31.714 5.83062 32.0237 5.61122 32.2076 5.33199C32.2796 5.45111 32.1805 5.56912 32.2076 5.65C32.2663 5.84114 32.8015 5.97245 32.9677 6.09268C33.5417 6.50377 34.0038 7.13259 34.6165 7.48772V7.42399H34.6159ZM31.125 4.94971C31.0874 5.06107 31.1106 5.01399 31.0586 5.07493C31.1328 5.12535 31.1223 5.11593 31.253 5.13919V5.20346C31.145 5.24224 31.1948 5.21565 31.1256 5.26884C30.838 5.21898 30.7838 5.11869 30.4923 5.07437C30.5405 4.78074 30.4336 4.37021 30.6192 4.12533C30.6829 4.06328 30.7477 3.99845 30.8087 3.93252H31.0031V3.9979C30.8829 4.04998 30.8331 4.08655 30.6835 4.12478C30.6613 4.18793 30.6375 4.25109 30.6198 4.3148C30.6375 4.33585 30.6613 4.35636 30.6835 4.37852C30.9721 4.33032 31.1262 4.22062 31.3821 4.12478C31.4026 4.1425 31.4248 4.16687 31.4447 4.18793C31.263 4.37851 31.0264 4.46826 30.7483 4.5702V4.69542C30.8951 4.83614 30.8563 4.90207 31.125 4.94971ZM31.3184 3.93308C31.4763 3.98017 31.5378 4.02449 31.637 4.12587C31.4791 4.07324 31.4153 4.03502 31.3184 3.93308ZM40.3302 4.76025C40.2925 4.37021 40.1108 4.30816 39.9512 4.06328C39.621 3.98849 39.3207 3.92366 38.8731 3.93308C38.6653 4.19846 38.3545 4.33917 38.236 4.69652V5.13919C37.9828 5.35028 37.7285 5.56413 37.4736 5.77632C37.334 5.96691 37.3024 6.22674 37.1567 6.41123C37.1661 6.65556 37.1512 6.67883 37.2825 6.79074C37.5606 6.98299 38.1529 5.73643 38.3634 5.52092C38.4193 5.46441 38.8653 5.84668 38.9978 5.9669C39.2914 5.95638 39.6742 5.92259 39.8255 5.8417C40.0842 5.7514 40.2576 5.53699 40.3307 5.26884C40.4155 5.14696 40.4183 4.88102 40.3302 4.76025ZM38.621 5.26884H38.488V5.13919C38.5324 5.16191 38.5739 5.1813 38.621 5.20346V5.26884ZM39.8249 5.01565C39.6759 4.93975 39.7047 4.95526 39.6299 4.82395C39.4698 4.90318 39.4931 4.88822 39.4393 5.07437C39.267 5.07437 39.1484 5.07438 39.0581 5.01565H38.9351V4.76025C39.1274 4.72036 39.0864 4.74639 39.1883 4.63281H39.2482C39.1634 4.44223 39.1069 4.50429 39.0576 4.25165C38.9961 4.27326 38.9346 4.29541 38.872 4.31536V4.18848C39.0531 4.18461 39.2166 4.18461 39.3158 4.25109C39.6748 4.29209 39.6188 4.404 39.8238 4.57076C39.9025 4.57076 39.8543 4.6101 39.9507 4.50706H40.0094C39.9518 4.67493 39.8814 4.8439 39.8249 5.01565ZM35.3783 9.32985C35.3561 9.20297 35.3367 9.07666 35.3162 8.94868C35.1528 8.96142 35.1018 8.97583 34.9988 9.01295C35.0337 9.20852 35.0104 9.16642 35.1245 9.2667C34.9899 9.62903 34.5916 9.85341 34.427 10.2168H34.3661V11.0451C34.5345 11.4723 35.37 11.7687 35.8841 11.4861C36.1323 11.352 36.2564 10.9748 36.4614 10.7881C36.4332 9.89663 35.9545 9.66448 35.3783 9.32985ZM35.6332 9.83788C35.8381 9.91988 35.8525 10.0418 36.0143 10.1554V10.2828C35.8282 10.1648 35.6852 10.1071 35.5733 10.0274C35.5207 10.09 35.4764 10.2013 35.4403 10.2828C35.3788 10.3022 35.3162 10.3238 35.2536 10.3476C35.2315 10.3238 35.2077 10.3022 35.1872 10.2828C35.2691 9.99302 35.4764 10.0418 35.6332 9.83788ZM35.8836 11.2351C35.6941 11.2817 35.5024 11.3592 35.3783 11.2983C35.2038 11.2983 35.0896 11.2939 34.9982 11.2351H34.9329C35.0559 11.1326 35.1866 11.0928 35.3157 11.172C35.5988 11.167 35.6603 11.1293 35.8221 11.0451C35.8442 10.8523 35.8609 10.6623 35.883 10.4723C36.0332 10.5199 36.0298 10.5398 36.139 10.5991C36.0625 10.8678 35.9334 10.9465 35.8836 11.2351Z" fill="white" fill-opacity="0.7"/>
</svg>
