<?xml version="1.0" encoding="utf-8"?>
<!-- Generator: Adobe Illustrator 25.0.0, SVG Export Plug-In . SVG Version: 6.00 Build 0)  -->
<svg version="1.1" xmlns="http://www.w3.org/2000/svg" xmlns:xlink="http://www.w3.org/1999/xlink" x="0px" y="0px"
	 viewBox="0 0 170 150" style="enable-background:new 0 0 170 150;" xml:space="preserve">
<style type="text/css">
	.st0{fill:#FFFFFF;}
	.st1{fill:#000F9F;}
	.st2{fill:#00A0DF;}
	.st3{fill:#EB0045;}
	.st4{display:none;}
	.st5{display:inline;fill:#00A0DF;}
</style>
<g id="Слой_1">
	<g>
		<polygon class="st0" points="156.86,118.75 156.86,119.52 13.12,119.52 13.12,118.75 13.12,115.08 156.86,115.08 		"/>
		<g>
			<path class="st1" d="M0.28,14.81V150l12.84-2.43v-13.83v-4.43h96.52l59.28-11.22c0.47-0.09,0.8-0.5,0.8-0.97V14.81L0.28,14.81z
				 M156.86,115.08v4.43H13.12v-4.43V93.72h143.74V115.08z"/>
		</g>
		<rect x="0.28" class="st2" width="169.44" height="14.81"/>
		<path class="st0" d="M28.55,66.77L16.51,56.16v14.73h-3.27V48.73l0.04,0v-0.01l16.85,14.84l0-14.08h3.28v21.39h-3.36v-0.82
			C30.04,68.8,29.5,67.6,28.55,66.77z M79.84,61.95l-0.37,0.12l4.65,8.82h-2.13c-0.99,0-1.89-0.54-2.35-1.42l-3.47-6.58l-4.6,1.15
			c-1.2,0.3-2.06,1.34-2.15,2.59v4.27h-3.27V49.49l11.76,0c3.5,0,6.34,2.84,6.34,6.34v0.09C84.26,58.68,82.48,61.11,79.84,61.95z
			 M81.08,55.85V55.8c0-1.79-1.45-3.23-3.23-3.23h-8.38v0l-1.77,0l1.15,1.09c0.37,0.35,0.58,0.84,0.58,1.35v6.45l0.45-0.19
			c0.3-0.13,0.62-0.24,0.93-0.31l7.83-1.95C80.07,58.63,81.08,57.34,81.08,55.85z M131.17,49.49h-16.75v18.41
			c0,1.65,1.34,2.99,2.99,2.99h13.73v-3.06h-12.32c-0.62,0-1.12-0.5-1.12-1.12v-5.61h10.82v-3.06H117.7V55c0-0.51-0.21-1-0.58-1.35
			l-1.17-1.1h1.76v0h13.47V49.49z M106.97,49.49l-6.47,15.95c-0.26,0.69-0.07,1.47,0.47,1.98l0.43,0.4h-2.23l0.48,0h-0.91
			c-0.62,0-1.19-0.39-1.4-0.98l-7.01-17.36h-3.7l7.52,18.65c0.59,1.64,2.16,2.74,3.91,2.74H102l8.68-21.39H106.97z M61.35,60.17
			c0,6.19-5.18,11.21-11.57,11.21c-6.39,0-11.57-5.02-11.57-11.21c0-6.19,5.18-11.21,11.57-11.21
			C56.17,48.95,61.35,53.97,61.35,60.17z M58.19,60.17c0-4.5-3.77-8.15-8.41-8.15c-4.65,0-8.41,3.65-8.41,8.15
			c0,4.5,3.77,8.15,8.41,8.15C54.42,68.32,58.19,64.67,58.19,60.17z M153.62,70.07v0.82h3.36V49.49h-3.28l0,14.08l-16.85-14.84v0.01
			l-0.04,0v22.15h3.27V56.16l12.04,10.61C153.08,67.6,153.62,68.8,153.62,70.07z"/>
		<polygon class="st0" points="13.12,133.74 86.21,133.74 109.64,129.3 13.12,129.3 		"/>
		<polygon class="st3" points="13.12,147.57 86.21,133.74 13.12,133.74 		"/>
		<g>
			<rect x="13.12" y="93.72" class="st3" width="143.74" height="21.36"/>
		</g>
		<path class="st0" d="M19.3,102.24h4.79v0.66h-2.04v5.26h-0.71v-5.26H19.3V102.24z M27.28,102.23l2.66,5.92h-0.76l-0.62-1.39h-3.2
			l-0.61,1.39h-0.76l2.66-5.92H27.28z M28.27,106.09l-1.31-2.97l-1.31,2.97H28.27z M32.96,104.78l-0.06-0.01
			c-0.98-0.18-1.62-0.35-1.62-0.93c0-0.98,1.42-1.01,1.58-1.01c0.61,0.01,1.22,0.1,1.6,0.7l0.07,0.11l0.59-0.35l-0.08-0.12
			c-0.57-0.85-1.28-1.02-2.18-1.02c-0.78,0-1.48,0.24-1.88,0.64c-0.28,0.28-0.41,0.64-0.41,1.06c0,1.16,1.17,1.38,2.2,1.59
			c1.06,0.2,1.75,0.39,1.75,1.08c0,0.96-1.17,1.06-1.67,1.06c-0.66,0-1.49-0.33-1.81-0.95l-0.06-0.12l-0.63,0.31l0.06,0.12
			c0.48,0.96,1.58,1.3,2.44,1.3c0.55,0,2.36-0.12,2.37-1.72C35.23,105.21,34.03,104.98,32.96,104.78z M36.03,102.89h2.04v5.26h0.71
			v-5.26h2.04v-0.66h-4.79V102.89z M42.67,105.5h3.31v-0.67h-3.31v-1.93h3.47v-0.68h-4.17v5.92h4.27v-0.69h-3.57V105.5z
			 M54.79,102.96c0.55,0.56,0.86,1.35,0.85,2.24c-0.01,1.47-0.95,3.05-2.99,3.05c-2.05,0-2.99-1.59-2.99-3.07
			c0-1.51,0.92-3.04,2.99-3.04C53.52,102.14,54.26,102.42,54.79,102.96z M54.95,105.19c0-1.18-0.71-2.38-2.3-2.38
			c-0.67,0-1.23,0.21-1.64,0.62c-0.42,0.43-0.66,1.05-0.65,1.76c0.01,1.15,0.73,2.39,2.29,2.39
			C54.23,107.57,54.95,106.34,54.95,105.19z M57.14,108.16h0.71v-2.56h3.25v-0.68h-3.25v-1.98h3.37v-0.71h-4.07V108.16z
			 M69.02,106.66l-3.6-4.43h-0.38v5.92h0.71v-4.43l3.61,4.43h0.37v-5.92h-0.7V106.66z M76.46,102.96c0.55,0.56,0.86,1.35,0.85,2.24
			c-0.01,1.47-0.95,3.05-2.99,3.05c-2.05,0-2.99-1.59-2.99-3.07c0-1.51,0.92-3.04,2.99-3.04C75.19,102.14,75.93,102.42,76.46,102.96
			z M76.62,105.19c0-1.18-0.71-2.38-2.3-2.38c-0.67,0-1.23,0.21-1.64,0.62c-0.42,0.43-0.66,1.05-0.65,1.76
			c0.01,1.15,0.73,2.39,2.29,2.39C75.9,107.57,76.62,106.34,76.62,105.19z M81.93,105.97l2.01,2.18H83l-1.95-2.14H79.7v2.14h-0.71
			v-5.92h2.62c1.3,0,1.98,0.95,1.99,1.89c0,0.52-0.17,0.99-0.51,1.32C82.81,105.74,82.41,105.92,81.93,105.97z M79.7,105.33h1.87
			c1.06,0,1.29-0.66,1.29-1.22c0-0.33-0.12-0.65-0.34-0.87c-0.22-0.23-0.54-0.34-0.91-0.34H79.7V105.33z M90.53,107.11l-1.63-4.88
			h-0.44l-1.64,4.88l-1.65-4.88h-0.75l2.07,5.94h0.66l0.94-2.76l0.58-1.82l0.58,1.84l0.93,2.74h0.66l2.09-5.94h-0.76L90.53,107.11z
			 M96.25,102.23l2.66,5.92h-0.76l-0.62-1.39h-3.2l-0.61,1.39h-0.76l2.66-5.92H96.25z M97.23,106.09l-1.31-2.97l-1.31,2.97H97.23z
			 M103.17,102.23l-1.85,2.86l-1.84-2.86h-0.58l-0.13,0.01v0.17l2.21,3.38v2.36h0.71v-2.36l2.19-3.35l0.02-0.04v-0.17H103.17z"/>
	</g>
</g>
<g id="Layer_2" class="st4">
	<path class="st5" d="M190.46,12.24v180.94l17.19-3.25v-18.51v-5.94h129.18l79.33-15.01c0.62-0.12,1.08-0.66,1.08-1.3V12.24
		L190.46,12.24z"/>
	<polygon class="st5" points="400.02,146.44 400.02,152.38 207.65,152.38 207.65,146.44 207.65,117.86 400.02,117.86 	"/>
</g>
</svg>
