<svg width="18" height="18" viewBox="0 0 18 18" fill="none" xmlns="http://www.w3.org/2000/svg">
<path d="M1.05 18C0.883334 18 0.708333 17.9957 0.525 17.987C0.341667 17.9783 0.166667 17.966 0 17.95V12.1L5 11.1L7.9 14C9.16667 13.2333 10.3293 12.325 11.388 11.275C12.4467 10.225 13.3257 9.1 14.025 7.9L11.175 5.025L12.1 0H17.95C17.9833 0.166667 18 0.341667 18 0.525V1.05C18 3.2 17.521 5.296 16.563 7.338C15.605 9.38 14.3383 11.1923 12.763 12.775C11.1877 14.3583 9.37933 15.625 7.338 16.575C5.29667 17.525 3.20067 18 1.05 18Z" fill="black"/>
</svg>
