<?xml version="1.0" encoding="utf-8"?>
<!-- Uploaded to: SVG Repo, www.svgrepo.com, Generator: SVG Repo Mixer Tools -->
<svg fill="#73ceff" width="800px" height="800px" viewBox="0 0 32 32" version="1.1" xmlns="http://www.w3.org/2000/svg">
<title>temperature-snow</title>
<path d="M9.25 21.001v-2.033c0-0.69-0.56-1.25-1.25-1.25s-1.25 0.56-1.25 1.25v0 2.033c-1.184 0.503-2 1.656-2 3 0 1.795 1.455 3.25 3.25 3.25s3.25-1.455 3.25-3.25c0-1.344-0.816-2.497-1.979-2.992l-0.021-0.008zM29.389 16.353l-3.796 2.111-4.267-2.463 4.265-2.462 3.804 2.11c0.174 0.099 0.382 0.157 0.604 0.157v0c0.001 0 0.002 0 0.003 0 0.69 0 1.249-0.559 1.249-1.249 0-0.468-0.258-0.876-0.639-1.090l-0.006-0.003-2.49-1.381 1.84-1.062c0.374-0.221 0.62-0.622 0.62-1.080 0-0.691-0.56-1.25-1.25-1.25-0.228 0-0.442 0.061-0.626 0.168l0.006-0.003-1.838 1.061 0.045-2.846c0-0.006 0-0.014 0-0.021 0-0.683-0.549-1.238-1.23-1.249h-0.001c-0.676 0.028-1.22 0.558-1.269 1.226l-0 0.004-0.069 4.343-4.267 2.464v-4.923l3.73-2.235c0.366-0.222 0.608-0.619 0.608-1.072 0-0.69-0.56-1.25-1.25-1.25-0.237 0-0.459 0.066-0.648 0.181l0.006-0.003-2.445 1.465v-2.125c0-0.69-0.56-1.25-1.25-1.25s-1.25 0.56-1.25 1.25v0 2.122l-2.438-1.464c-0.185-0.113-0.408-0.181-0.647-0.181-0.69 0-1.25 0.56-1.25 1.25 0 0.454 0.242 0.851 0.604 1.070l0.006 0.003 3.725 2.238v4.925l-4.326-2.498v-5.33c0-6.904-10.5-6.904-10.5 0v13.048c-1.231 1.292-1.988 3.045-1.988 4.975 0 3.987 3.232 7.219 7.219 7.219 2.679 0 5.017-1.459 6.263-3.626l0.019-0.035c0.066 0.025 0.143 0.046 0.224 0.059l0.007 0.001c0.001 0 0.002 0 0.003 0 0.236 0 0.457-0.066 0.645-0.181l-0.005 0.003 2.441-1.466v2.124c0 0.69 0.56 1.25 1.25 1.25s1.25-0.56 1.25-1.25v0-2.125l2.443 1.463c0.183 0.112 0.405 0.178 0.643 0.178 0.69 0 1.25-0.56 1.25-1.25 0-0.453-0.241-0.85-0.602-1.069l-0.006-0.003-3.729-2.232v-4.926l4.262 2.461 0.076 4.351c0.012 0.681 0.566 1.229 1.249 1.229 0 0 0.001 0 0.001 0h0.021c0.681-0.012 1.229-0.567 1.229-1.25 0-0.008-0-0.015-0-0.023l0 0.001-0.050-2.85 1.841 1.063c0.178 0.103 0.391 0.164 0.619 0.164 0.69 0 1.25-0.559 1.25-1.25 0-0.457-0.246-0.858-0.613-1.075l-0.006-0.003-1.84-1.062 2.488-1.383c0.384-0.218 0.639-0.625 0.639-1.090 0-0.69-0.56-1.25-1.25-1.25-0.222 0-0.43 0.058-0.61 0.159l0.006-0.003zM16.326 16l-3.076 1.776v-3.552zM8 28.75c-2.623 0-4.75-2.127-4.75-4.75 0-1.405 0.61-2.667 1.58-3.537l0.004-0.004c0.009-0.008 0.013-0.020 0.022-0.029 0.059-0.063 0.112-0.133 0.157-0.208l0.003-0.006c0.043-0.053 0.084-0.113 0.119-0.175l0.003-0.006c0.020-0.055 0.037-0.122 0.049-0.19l0.001-0.007c0.027-0.081 0.047-0.175 0.056-0.272l0-0.005 0.007-0.033v-13.52c-0.001-0.031-0.002-0.068-0.002-0.105 0-1.52 1.232-2.752 2.752-2.752s2.752 1.232 2.752 2.752c0 0.037-0.001 0.074-0.002 0.11l0-0.005v13.52l0.007 0.033c0.009 0.102 0.029 0.196 0.059 0.285l-0.003-0.009c0.013 0.076 0.030 0.142 0.052 0.206l-0.003-0.009c0.039 0.069 0.079 0.128 0.124 0.184l-0.002-0.002c0.048 0.081 0.101 0.151 0.16 0.215l-0.001-0.001c0.009 0.009 0.012 0.021 0.022 0.029 0.974 0.874 1.584 2.136 1.584 3.541 0 2.623-2.127 4.75-4.75 4.75-0 0-0 0-0 0v0zM15.198 24.515c0.012-0.173 0.052-0.338 0.052-0.515-0.013-1.425-0.436-2.75-1.157-3.863l0.017 0.028 3.466-2.001v4.921z"></path>
</svg>